<?xml version="1.0" encoding="utf-8"?>
<!-- Generator: Adobe Illustrator 24.0.0, SVG Export Plug-In . SVG Version: 6.00 Build 0)  -->
<svg version="1.1" id="Layer_1" xmlns="http://www.w3.org/2000/svg" xmlns:xlink="http://www.w3.org/1999/xlink" x="0px" y="0px"
	 viewBox="0 0 48 48" style="enable-background:new 0 0 48 48;" xml:space="preserve">
<style type="text/css">
	.st0{fill:#FFFFFF;}
</style>
<path class="st0" d="M24,5c-0.8,0-1.5,0.7-1.5,1.5v16h-16C5.7,22.5,5,23.2,5,24c0,0.8,0.7,1.5,1.5,1.5c0,0,0,0,0,0h16v16
	c0,0.8,0.7,1.5,1.5,1.5c0.8,0,1.5-0.7,1.5-1.5c0,0,0,0,0,0v-16h16c0.8,0,1.5-0.7,1.5-1.5c0-0.8-0.7-1.5-1.5-1.5c0,0,0,0,0,0h-16v-16
	C25.5,5.7,24.8,5,24,5C24,5,24,5,24,5z"/>
</svg>
